<svg width="27" height="29" viewBox="0 0 27 29" fill="none" xmlns="http://www.w3.org/2000/svg">
<path d="M24.2196 12.6713C24.3228 12.529 24.4575 12.4057 24.6159 12.3084C24.7744 12.2111 24.9534 12.1419 25.1429 12.1046C25.3323 12.0673 25.5284 12.0627 25.7199 12.0911C25.9114 12.1195 26.0945 12.1802 26.2588 12.2699C27.6652 13.0606 26.962 17.2025 25.0634 17.1356C23.1648 17.0687 23.882 12.5862 24.2196 12.6713Z" fill="#E2D3C1"/>
<g style="mix-blend-mode:multiply" opacity="0.45">
<path d="M24.2196 12.6713C24.3228 12.529 24.4575 12.4057 24.6159 12.3084C24.7744 12.2111 24.9534 12.1419 25.1429 12.1046C25.3323 12.0673 25.5284 12.0627 25.7199 12.0911C25.9114 12.1195 26.0945 12.1802 26.2588 12.2699C27.6652 13.0606 26.962 17.2025 25.0634 17.1356C23.1648 17.0687 23.882 12.5862 24.2196 12.6713Z" fill="#E2D3C1"/>
</g>
<path d="M25.9727 15.8703C25.9727 15.8703 25.8189 15.8703 25.642 15.834C25.5933 15.8247 25.5479 15.8068 25.5092 15.7817C25.4706 15.7565 25.4397 15.7248 25.419 15.6889C25.384 15.6003 25.384 15.5054 25.419 15.4168C25.457 15.3285 25.5232 15.2494 25.6112 15.187C25.6881 15.1265 25.7958 15.1084 25.9266 15.0177C26.0016 14.9669 26.0592 14.902 26.0942 14.8291C26.1291 14.7562 26.1402 14.6776 26.1265 14.6005C26.1171 14.5458 26.0963 14.4926 26.065 14.4433C26.0362 14.396 25.9971 14.353 25.9496 14.3163C25.8975 14.2639 25.832 14.2206 25.7574 14.1893L25.6112 14.1409C25.6134 14.1168 25.6134 14.0925 25.6112 14.0683C25.6075 14.0321 25.6075 13.9957 25.6112 13.9595C25.6546 13.8066 25.7272 13.6598 25.8266 13.5241C26.0342 13.252 26.3342 13.1432 26.3265 13.1009C26.3188 13.0585 25.965 13.1009 25.6497 13.3669C25.4878 13.5181 25.365 13.6927 25.2882 13.8809L25.2421 14.02C25.2421 14.0683 25.2421 14.0986 25.2421 14.1711C25.2421 14.2437 25.2421 14.4312 25.2421 14.5279C25.3417 14.5182 25.4424 14.5182 25.542 14.5279L25.6112 14.5581C25.6453 14.5773 25.6763 14.5997 25.7035 14.6247C25.7231 14.6417 25.7363 14.6626 25.742 14.6851C25.6344 14.7511 25.5317 14.8217 25.4343 14.8968C25.2909 15.0197 25.1972 15.1733 25.1652 15.3382C25.1219 15.5051 25.1633 15.6787 25.2805 15.8219C25.3246 15.8714 25.3833 15.9116 25.4517 15.939C25.5201 15.9664 25.596 15.9802 25.6728 15.9791C25.8573 15.9912 25.9804 15.8945 25.9727 15.8703Z" fill="#767F72"/>
<g style="mix-blend-mode:multiply" opacity="0.62">
<path d="M25.0727 17.1359C23.1665 17.0875 23.8778 12.5936 24.2192 12.6784C24.4774 12.3681 24.8634 12.1518 25.3003 12.0728C25.1507 12.6287 25.1952 13.2097 25.4283 13.7443C25.4283 13.7443 25.9333 13.066 26.1965 13.2962C26.4596 13.5263 26.0542 14.6104 26.6303 14.7134C26.8081 14.7497 26.929 14.6286 27.0001 14.4469C26.8935 15.7672 26.1893 17.1662 25.0727 17.1359Z" fill="#E2D3C1"/>
</g>
<g style="mix-blend-mode:screen" opacity="0.5">
<g style="mix-blend-mode:screen" opacity="0.5">
<path d="M26.7961 13.2006C26.8735 13.4305 26.8383 13.6603 26.7187 13.7148C26.5991 13.7692 26.4301 13.6301 26.3527 13.4002C26.2753 13.1704 26.3035 12.9405 26.4302 12.8861C26.5568 12.8316 26.7116 12.9707 26.7961 13.2006Z" fill="#E2D3C1"/>
</g>
<g style="mix-blend-mode:screen" opacity="0.5">
<path d="M26.3108 12.5341C26.3237 12.574 26.3211 12.6163 26.3033 12.6547C26.2854 12.6931 26.2535 12.7254 26.2123 12.7465C26.1956 12.757 26.1762 12.7638 26.1558 12.7663C26.1354 12.7688 26.1146 12.767 26.0952 12.761C26.0757 12.7551 26.0583 12.7451 26.0444 12.732C26.0304 12.7189 26.0204 12.703 26.0152 12.6858C25.9995 12.6477 26 12.6059 26.0168 12.5681C26.0335 12.5303 26.0654 12.4989 26.1067 12.4795C26.1235 12.4691 26.1429 12.4621 26.1633 12.4593C26.1838 12.4564 26.2048 12.4577 26.2245 12.463C26.2443 12.4682 26.2624 12.4774 26.2774 12.4898C26.2924 12.5021 26.3038 12.5173 26.3108 12.5341Z" fill="#E2D3C1"/>
</g>
</g>
<path d="M3.06037 12.8117C2.90561 9.13019 4.67833 3.13941 13.6967 3.10314C22.7151 3.06687 24.1431 11.6027 24.1431 11.6027C24.6768 13.4175 24.9578 15.2804 24.9803 17.1521C24.8747 19.5702 23.4186 23.1308 16.9186 23.7051C10.4186 24.2794 5.41698 21.9339 4.25626 18.5002C3.52181 18.4636 2.82243 18.218 2.26837 17.802C1.71432 17.3861 1.3371 16.8235 1.1962 16.203C0.731913 14.589 1.72379 12.981 3.06037 12.8117Z" fill="#E2D3C1"/>
<g style="mix-blend-mode:multiply">
<g style="mix-blend-mode:multiply" opacity="0.45">
<path d="M3.1094 12.8247C3.05458 11.5724 3.23275 10.3207 3.63718 9.11671C3.96494 8.17454 4.45858 7.28105 5.1009 6.46729C3.79904 8.3485 3.57385 11.1733 3.64422 12.8852C3.45295 12.8788 3.26246 12.8606 3.07422 12.8308L3.1094 12.8247Z" fill="#E2D3C1"/>
</g>
<g style="mix-blend-mode:multiply" opacity="0.45">
<path d="M1.92008 13.4287C1.53783 14.1162 1.44338 14.8961 1.65266 15.6366C1.79592 16.2581 2.17469 16.8214 2.72979 17.2384C3.28488 17.6553 3.98504 17.9025 4.72084 17.9412C5.889 21.3709 10.8924 23.7179 17.3876 23.1493C20.8076 22.8469 22.8343 21.7097 23.9954 20.3547C22.9257 21.9456 20.8428 23.3792 16.9583 23.6937C10.4631 24.2684 5.45269 21.9214 4.29157 18.4856C3.55686 18.449 2.85725 18.2032 2.30301 17.787C1.74876 17.3708 1.37141 16.8079 1.23046 16.187C1.09146 15.7126 1.08136 15.217 1.20095 14.7387C1.32054 14.2604 1.56659 13.8122 1.92008 13.4287V13.4287Z" fill="#E2D3C1"/>
</g>
</g>
<path d="M20.2675 14.7495C20.2675 15.5082 20.6555 16.1238 21.1629 16.1238C21.6703 16.1238 22.0956 15.5019 22.118 14.7557C22.1404 14.0094 21.73 13.3813 21.2226 13.375C20.7152 13.3688 20.2898 14.0032 20.2675 14.7495Z" fill="#475242"/>
<g style="mix-blend-mode:multiply" opacity="0.25">
<path d="M20.7747 13.5203C20.7115 13.7226 20.6775 13.9308 20.6736 14.1403C20.6736 14.8967 21.0416 15.5167 21.5321 15.5167C21.6904 15.5109 21.8402 15.4532 21.9506 15.3555C21.7991 15.8143 21.4889 16.1305 21.1354 16.1243C20.6448 16.1243 20.2552 15.5043 20.2697 14.7541C20.2452 14.3021 20.4263 13.8596 20.7747 13.5203V13.5203Z" fill="#475242"/>
</g>
<g style="mix-blend-mode:screen">
<path d="M21.9507 14.5143C21.9507 14.7482 21.8388 14.9536 21.658 14.965C21.4771 14.9764 21.2963 14.7938 21.2791 14.5542C21.2619 14.3147 21.3824 14.1093 21.5719 14.0979C21.7613 14.0865 21.9249 14.2747 21.9507 14.5143Z" fill="#475242"/>
</g>
<g style="mix-blend-mode:screen">
<path d="M21.2775 13.8859C21.2785 13.9 21.2843 13.9136 21.2941 13.9249C21.304 13.9362 21.3175 13.9448 21.3329 13.9496C21.3484 13.9544 21.3652 13.9553 21.3811 13.952C21.3971 13.9487 21.4116 13.9414 21.4229 13.9311C21.4341 13.9208 21.4417 13.9079 21.4445 13.894C21.4473 13.88 21.4454 13.8657 21.4389 13.8527C21.4324 13.8397 21.4216 13.8286 21.4079 13.8208C21.3942 13.813 21.3781 13.8089 21.3617 13.8088C21.3389 13.81 21.3175 13.8186 21.3018 13.833C21.2861 13.8473 21.2774 13.8662 21.2775 13.8859V13.8859Z" fill="#475242"/>
</g>
<path d="M2.59558 17.0305C2.59149 17.1207 2.61324 17.2103 2.65883 17.291C2.70441 17.3717 2.77231 17.4409 2.85624 17.4921C2.93197 17.5413 3.02296 17.5689 3.11693 17.571C3.17677 17.5709 3.23592 17.5595 3.29035 17.5375C3.34479 17.5155 3.39326 17.4835 3.4325 17.4435C3.53514 17.3459 3.60209 17.2231 3.62458 17.0913C3.64279 17.0173 3.64044 16.9405 3.61773 16.8675C3.59503 16.7946 3.55266 16.7275 3.49424 16.6722C3.41022 16.6101 3.3181 16.5571 3.21984 16.5144C3.16391 16.4757 3.11922 16.4257 3.0895 16.3686C3.03535 16.2619 3.02326 16.1421 3.05519 16.0286C3.11693 15.8585 3.25413 15.8524 3.24727 15.8524C3.27436 15.847 3.30249 15.847 3.32958 15.8524H3.41192H3.45993L3.52853 15.9435C3.62457 16.0711 3.70689 16.1075 3.80293 16.1075C3.83409 16.107 3.86481 16.1008 3.89314 16.0893C3.92147 16.0778 3.94681 16.0613 3.96758 16.0407C4.01177 15.9969 4.04454 15.9451 4.06361 15.8889C4.09702 15.7287 4.11082 15.5659 4.10477 15.4031C4.11159 15.2939 4.11159 15.1844 4.10477 15.0752C4.07701 14.8651 4.0122 14.6602 3.91269 14.4679C3.82445 14.3133 3.69779 14.1783 3.54224 14.0732C3.2747 13.9032 3.04833 13.9578 3.05519 13.9821C3.06205 14.0064 3.24041 14.0367 3.43935 14.225C3.67758 14.4858 3.80395 14.8127 3.79608 15.148C3.80293 15.2431 3.80293 15.3384 3.79608 15.4334C3.79608 15.5306 3.79608 15.5063 3.79608 15.5306C3.79608 15.5549 3.74806 15.5306 3.75492 15.5306L3.69316 15.4881C3.65678 15.461 3.61487 15.4404 3.56969 15.4274C3.4996 15.4141 3.42712 15.4141 3.35703 15.4274C3.29575 15.4179 3.2331 15.4179 3.17182 15.4274C3.10915 15.4488 3.05113 15.4796 3.00032 15.5185C2.83831 15.6294 2.72835 15.7895 2.69161 15.9678C2.63721 16.1976 2.67865 16.437 2.80824 16.6419C2.87422 16.7426 2.96881 16.8264 3.08263 16.8848C3.18553 16.9334 3.27471 16.9516 3.31587 16.982C3.33783 16.9949 3.35483 17.0134 3.36463 17.0351C3.37443 17.0568 3.37656 17.0806 3.37074 17.1034C3.36651 17.1694 3.34026 17.2328 3.29529 17.2856C3.26123 17.3343 3.20692 17.3692 3.14406 17.3828C3.08119 17.3965 3.0148 17.3877 2.95916 17.3585C2.70534 17.2066 2.62302 16.9941 2.59558 17.0305Z" fill="#767F72"/>
<g style="mix-blend-mode:screen">
<path d="M2.21964 14.0722C2.0453 14.2461 1.8516 14.2957 1.78058 14.184C1.70955 14.0722 1.78058 13.855 1.96137 13.6874C2.14216 13.5198 2.3294 13.4701 2.40043 13.5756C2.47145 13.6812 2.39397 13.9046 2.21964 14.0722Z" fill="#E2D3C1"/>
</g>
<g style="mix-blend-mode:screen">
<path d="M2.92308 13.3016C2.93689 13.3389 2.93407 13.3786 2.91505 13.4146C2.89602 13.4506 2.86184 13.4808 2.81781 13.5006C2.8 13.5104 2.7793 13.5168 2.75749 13.5192C2.73569 13.5215 2.71347 13.5199 2.69273 13.5142C2.67198 13.5086 2.65335 13.4993 2.63846 13.487C2.62358 13.4747 2.61288 13.4599 2.60731 13.4438C2.59046 13.408 2.59106 13.3689 2.60898 13.3334C2.6269 13.298 2.66096 13.2685 2.70505 13.2504C2.723 13.2406 2.74372 13.2341 2.76557 13.2314C2.78742 13.2287 2.80979 13.2299 2.83094 13.2348C2.85208 13.2398 2.87141 13.2484 2.8874 13.26C2.90339 13.2716 2.91561 13.2858 2.92308 13.3016V13.3016Z" fill="#E2D3C1"/>
</g>
<g style="mix-blend-mode:multiply" opacity="0.45">
<path d="M15.2184 17.2907C15.719 17.3397 16.2262 17.2999 16.7076 17.1737C17.1891 17.0475 17.6343 16.8377 18.015 16.5576C18.015 16.5576 18.8213 16.958 17.4339 17.457C15.5816 18.1224 15.2184 17.2907 15.2184 17.2907Z" fill="#E2D3C1"/>
</g>
<path d="M16.0596 17.7056C16.0596 17.7056 16.2867 17.7422 16.6171 17.7056C17.016 17.6375 17.3981 17.5072 17.7458 17.3209C17.8279 17.2855 17.9012 17.2359 17.9614 17.1751C18.0217 17.1143 18.0677 17.0435 18.0969 16.9668C18.1068 16.9079 18.0963 16.8478 18.0668 16.7943C18.0373 16.7409 17.9902 16.6967 17.9317 16.6676C17.8342 16.6135 17.7271 16.5743 17.6151 16.5515H17.4843C17.3791 16.5407 17.2729 16.5407 17.1677 16.5515C17.0388 16.5596 16.9116 16.5822 16.7891 16.6187C16.7128 16.6383 16.639 16.6649 16.5689 16.6981C16.4005 16.7831 16.2395 16.879 16.0871 16.9851V16.4294V16.0936C16.0871 15.8677 16.0871 15.6356 16.0871 15.428C16.066 15.1769 16.0822 14.9244 16.1353 14.677C16.2155 14.9171 16.2594 15.1655 16.266 15.4158C16.266 15.6295 16.3073 15.8616 16.3349 16.0875L16.3693 16.4233C16.3693 16.4539 16.3693 16.4661 16.3693 16.4722L16.4175 16.4416L16.679 16.3317C16.8244 16.2868 16.9741 16.2541 17.1264 16.234C17.2567 16.2206 17.3884 16.2206 17.5187 16.234L17.6977 16.2646C17.8557 16.2964 18.0038 16.359 18.1313 16.4478C18.2275 16.5097 18.3055 16.5914 18.3584 16.6859C18.4166 16.7986 18.4311 16.9253 18.3997 17.0462C18.356 17.1578 18.2871 17.2603 18.1971 17.3475C18.1072 17.4346 17.9981 17.5046 17.8766 17.5529C17.4865 17.7285 17.0604 17.8323 16.624 17.8583C16.4211 17.8702 16.2204 17.8159 16.0596 17.7056V17.7056Z" fill="#767F72"/>
<g style="mix-blend-mode:screen">
<path d="M17.2314 16.744C17.2665 16.8018 17.1541 16.8933 16.9715 16.9511C16.7888 17.0089 16.6061 17.004 16.571 16.9511C16.5359 16.8981 16.6483 16.7969 16.8309 16.744C17.0136 16.691 17.2314 16.6862 17.2314 16.744Z" fill="#F8E9D0"/>
</g>
<g style="mix-blend-mode:multiply" opacity="0.45">
<path d="M13.366 17.3146C13.4012 18.0399 12.3451 18.6701 11.0004 18.7236C9.65565 18.7771 8.52918 18.2302 8.48693 17.5346C8.44469 16.839 9.50781 16.1732 10.8525 16.1197C12.1973 16.0662 13.3237 16.5893 13.366 17.3146ZM21.9201 15.1922C20.6247 15.4479 19.7305 16.2326 19.9206 16.9342C20.1107 17.6357 21.3287 18.0102 22.6171 17.7546C23.9055 17.4989 24.8137 16.7142 24.6166 16.0067C24.4195 15.2992 23.2156 14.9366 21.9201 15.1922V15.1922Z" fill="#E2D3C1"/>
</g>
<g style="mix-blend-mode:multiply" opacity="0.45">
<path d="M7.2595 7.32643C14.551 12.109 22.9659 8.70403 22.9659 8.70403C23.4726 9.41269 23.867 10.1753 24.1388 10.972C23.6301 9.05898 21.4327 3.05519 13.7738 3.10332C4.71595 3.15746 2.93547 9.11913 3.09091 12.7647C2.85379 12.8023 2.62794 12.88 2.42676 12.9933C2.6032 13.1442 2.79734 13.2792 3.00613 13.3964C4.45454 13.9498 4.26377 16.1637 5.12575 15.5982C5.98773 15.0327 5.40836 12.7587 5.40836 12.7587C6.97689 11.5435 7.2595 7.32643 7.2595 7.32643Z" fill="#E2D3C1"/>
</g>
<path d="M2.75252 12.8122C2.04188 12.378 1.47031 11.7964 1.0909 11.1214C0.711491 10.4464 0.536557 9.69983 0.582334 8.95107C0.659841 5.70218 2.9005 4.27775 6.07124 4.34443C6.07124 4.34443 9.28425 0.131767 14.0333 0.210564C18.7824 0.289362 20.1352 3.70797 22.0024 3.46552C23.8696 3.22306 24.4263 2.69573 24.4263 2.69573C24.4263 2.69573 24.5249 4.4111 23.5878 4.98693C24.3077 4.82317 24.9978 4.5743 25.6382 4.24744C25.7298 5.44501 25.4061 6.63903 24.7081 7.67818C24.7081 7.67818 25.8285 9.55721 25.2648 10.8665C24.9808 11.474 24.7638 12.1031 24.6165 12.7455C24.6165 12.7455 23.5878 9.15109 22.6577 8.09035C22.6577 8.09035 14.2658 11.5211 6.99428 6.70231C6.99428 6.70231 6.71244 10.9453 5.12707 12.1575C5.12707 12.1575 5.68369 14.4487 4.84521 15.0185C4.00672 15.5883 4.19697 13.3637 2.75252 12.8122Z" fill="#657260"/>
<path d="M10.6672 11.4127C10.6672 11.4786 10.3649 11.4127 10.1346 11.472C9.98566 11.4964 9.84217 11.5432 9.7099 11.6104C9.56317 11.6415 9.42405 11.6974 9.29961 11.775C9.09087 11.8936 8.9325 12.0912 8.86053 12.0714C8.78855 12.0517 8.81014 11.7618 8.99729 11.5115C9.08569 11.4004 9.19255 11.3026 9.314 11.2217C9.36963 11.1807 9.42997 11.1454 9.49395 11.1163C9.56204 11.0973 9.63193 11.0841 9.70269 11.0768C9.85044 11.0545 10.0012 11.0545 10.149 11.0768C10.4729 11.1559 10.7176 11.3535 10.6672 11.4127Z" fill="#657260"/>
<path d="M21.605 10.7584C21.5477 10.81 21.3043 10.6874 21.0681 10.6164C20.9282 10.57 20.7804 10.5459 20.6314 10.5453H20.5169C20.4247 10.5288 20.3298 10.5288 20.2377 10.5453C20.1401 10.566 20.0478 10.6032 19.9657 10.6551C19.8941 10.7003 19.8368 10.7455 19.801 10.739C19.7652 10.7326 19.7366 10.6551 19.801 10.5453C19.8549 10.4126 19.9523 10.2978 20.0802 10.2161C20.2112 10.1346 20.3602 10.0796 20.5169 10.0546C20.5929 10.0449 20.67 10.0449 20.7459 10.0546C20.8149 10.0672 20.8822 10.0867 20.9464 10.1128C21.0789 10.1674 21.2019 10.2392 21.3115 10.3258C21.4905 10.4549 21.6551 10.7067 21.605 10.7584Z" fill="#657260"/>
<g style="mix-blend-mode:screen">
<path d="M3.03812 6.00391C2.86774 6.17977 2.74689 6.38688 2.68493 6.60919C2.70612 6.61525 2.8898 6.32471 3.14409 6.05839C3.31151 5.8961 3.50125 5.75179 3.70918 5.62862C3.90469 5.49448 4.1181 5.3807 4.34492 5.28967C4.50014 5.22776 4.66392 5.18301 4.83232 5.1565C4.97359 5.1565 5.06542 5.16861 5.07248 5.1565C5.07954 5.1444 4.98065 5.11415 4.83232 5.11415C4.64817 5.11414 4.4658 5.14498 4.29546 5.20494C4.04598 5.28234 3.8087 5.38602 3.58909 5.51362C3.38213 5.65657 3.19702 5.82131 3.03812 6.00391Z" fill="#657260"/>
<path d="M3.94228 6.91184C3.78688 7.13579 3.70211 7.29315 3.70211 7.29315L3.7233 7.3779L3.57497 7.66238C3.43934 7.95787 3.33762 8.26398 3.27123 8.57636C3.20693 8.89196 3.1856 9.21288 3.20766 9.5327C3.20766 9.79297 3.21473 9.96245 3.20766 9.9685C3.2006 9.97456 3.16528 9.93219 3.16528 9.8535C3.13458 9.75016 3.11333 9.64493 3.10171 9.53876C3.05236 9.2153 3.05236 8.8877 3.10171 8.56424C3.15039 8.23806 3.24038 7.91739 3.37012 7.60791L3.51847 7.31131L3.58204 7.1963C3.66162 7.0655 3.74884 6.93825 3.8434 6.81499C4.04643 6.54362 4.28327 6.29194 4.54977 6.06443C4.82162 5.83066 5.1397 5.64007 5.48924 5.50152C5.64476 5.42978 5.82285 5.40222 5.99783 5.42283C5.83121 5.44767 5.66952 5.4925 5.5175 5.55599C5.19454 5.71981 4.90173 5.92379 4.64865 6.16127C4.38248 6.38904 4.14567 6.64068 3.94228 6.91184Z" fill="#657260"/>
<path d="M5.62345 7.20236C5.6052 7.07519 5.62465 6.94613 5.67997 6.82709C5.72514 6.70535 5.78429 6.58776 5.85657 6.47603C5.94613 6.37435 6.04794 6.28101 6.1603 6.19759C6.32983 6.07048 6.52762 5.99179 6.54175 6.00995C6.55588 6.02811 6.38635 6.14312 6.2592 6.28234C6.16825 6.37005 6.08778 6.46535 6.01902 6.56682C5.93691 6.66265 5.8637 6.76384 5.80004 6.86946C5.70822 7.02683 5.62345 7.20236 5.62345 7.20236Z" fill="#657260"/>
<path d="M9.76986 2.21484C9.48731 2.36011 9.31072 2.46905 9.31072 2.46905C8.83675 2.74703 8.40697 3.07666 8.03219 3.44962C7.76011 3.70611 7.52312 3.98837 7.32581 4.29095C7.17041 4.53912 7.08564 4.72071 7.07858 4.71466C7.07152 4.70861 7.11391 4.66622 7.11391 4.58754C7.15452 4.47776 7.20409 4.37056 7.26224 4.26674C7.43106 3.94587 7.64709 3.64483 7.90505 3.37093C8.16097 3.0995 8.44723 2.85015 8.75975 2.62643C9.02111 2.43879 9.20477 2.32984 9.20477 2.32984C9.20477 2.32984 9.38842 2.22089 9.6851 2.08168C10.041 1.91251 10.409 1.76291 10.787 1.63377C11.1662 1.51079 11.5529 1.40571 11.9455 1.31902C12.1224 1.27053 12.3047 1.23807 12.4894 1.22217C12.3198 1.28532 12.1451 1.33792 11.9667 1.37955C11.5831 1.4842 11.2058 1.60541 10.8365 1.74272C10.4694 1.8801 10.1131 2.0378 9.76986 2.21484Z" fill="#657260"/>
<path d="M9.23303 4.13357C9.10065 4.2008 8.96385 4.26144 8.82332 4.31517H8.83039C8.57488 4.45152 8.33796 4.61191 8.12402 4.79335C7.96862 4.93862 7.82733 5.10203 7.82733 5.10203C7.84722 4.96377 7.91348 4.83341 8.01807 4.72676C8.10959 4.61175 8.21624 4.50615 8.33592 4.41202C8.46889 4.32978 8.61374 4.26263 8.76682 4.21226C8.91091 4.15002 9.07216 4.12281 9.23303 4.13357Z" fill="#657260"/>
<path d="M15.329 8.08003C15.8985 8.08268 16.4674 8.05031 17.0314 7.98318C17.2884 7.94131 17.5477 7.911 17.8084 7.89239C17.739 7.91237 17.6683 7.92853 17.5965 7.9408C17.4158 7.98722 17.2317 8.02361 17.0455 8.04975C16.4813 8.13808 15.9096 8.18668 15.3361 8.19503C14.7597 8.20248 14.1835 8.17211 13.6125 8.10422C13.3794 8.08001 13.1817 8.02555 13.0474 8.02555L12.8355 7.98924L12.6307 7.9408C12.4447 7.90641 12.2608 7.86399 12.0797 7.8137C11.5298 7.66661 10.9918 7.48868 10.4692 7.28105C9.95375 7.06034 9.45795 6.80746 8.9858 6.52445C8.83179 6.43199 8.68327 6.33301 8.54078 6.22786C8.43482 6.15523 8.3642 6.11891 8.37833 6.1068C8.39245 6.09469 8.63967 6.25813 9.02818 6.47603C9.50979 6.73477 10.01 6.96726 10.5257 7.1721C11.0461 7.36924 11.5819 7.53509 12.1292 7.66844C12.3481 7.72897 12.5389 7.78948 12.6731 7.78948L12.8779 7.83186L13.0828 7.86817C13.217 7.88633 13.4077 7.9529 13.6337 7.9529C14.1948 8.02818 14.7612 8.07066 15.329 8.08003Z" fill="#657260"/>
<path d="M21.2626 4.39386C20.9006 4.42008 20.5367 4.42008 20.1748 4.39386V4.40596C19.8171 4.36082 19.4632 4.29612 19.1152 4.21226C18.9552 4.18619 18.7989 4.14562 18.649 4.09122C18.8108 4.09955 18.9715 4.11978 19.1293 4.15173C19.4189 4.18805 19.8074 4.2607 20.1889 4.2607C20.5416 4.28255 20.8957 4.28255 21.2484 4.2607C21.4051 4.24819 21.5607 4.22798 21.7146 4.20016C21.8728 4.18124 22.0287 4.15087 22.1809 4.10938C22.5189 4.02919 22.8422 3.90899 23.1415 3.75226C23.4425 3.58944 23.7099 3.38489 23.9327 3.14698C24.1093 2.95329 24.2082 2.81406 24.2152 2.81406C24.2223 2.81406 24.2082 2.85643 24.1728 2.92301C24.1206 3.0142 24.0592 3.10131 23.9892 3.1833C23.7792 3.43851 23.5157 3.6581 23.2122 3.83093C22.9114 4.00883 22.5801 4.14565 22.2303 4.23648C22.073 4.2813 21.9126 4.31768 21.75 4.34543C21.5886 4.36859 21.4259 4.38476 21.2626 4.39386Z" fill="#657260"/>
<path d="M22.0466 5.76179C21.8625 5.81839 21.6736 5.86291 21.4816 5.89495C21.0584 5.94928 20.6308 5.97357 20.203 5.96758C19.782 5.99019 19.3597 5.99019 18.9386 5.96758C18.7475 5.96261 18.5579 5.93823 18.3735 5.89495C18.564 5.88431 18.7552 5.88431 18.9457 5.89495C19.2847 5.92521 19.7439 5.92521 20.1959 5.89495C20.6119 5.875 21.0253 5.82643 21.4321 5.74969C21.6144 5.71349 21.7938 5.66698 21.969 5.61046C22.5417 5.44925 23.0375 5.13268 23.3817 4.7086C23.6169 4.41543 23.818 4.10323 23.9821 3.77646C24.0516 3.62411 24.1342 3.47642 24.2293 3.33462C24.187 3.49423 24.1279 3.65022 24.0527 3.80068C23.909 4.14207 23.7219 4.46887 23.4947 4.77517C23.2596 5.08705 22.9458 5.34975 22.5764 5.54389C22.4096 5.63284 22.232 5.70589 22.0466 5.76179Z" fill="#657260"/>
<path d="M15.9789 2.43879C15.9789 2.43879 15.7529 2.29352 15.5409 2.13615C15.3893 2.03682 15.2559 1.91848 15.1454 1.78509C15.3161 1.85659 15.4771 1.94386 15.6257 2.04536L16.0919 2.30563L16.5369 2.59011C16.6995 2.67259 16.8511 2.77002 16.989 2.88065C16.8048 2.83804 16.6287 2.77279 16.4663 2.68696C16.2191 2.57196 15.9789 2.43879 15.9789 2.43879Z" fill="#657260"/>
<path d="M24.3706 5.9918C24.1032 6.22217 23.8176 6.43654 23.5159 6.63339C23.2687 6.82708 23.078 6.89366 23.078 6.89366C22.6252 7.14991 22.1532 7.38042 21.6652 7.58369C21.3241 7.72616 20.9725 7.84948 20.6127 7.9529C20.4532 8.00496 20.2873 8.04152 20.1183 8.06187C20.2709 7.99536 20.4291 7.93871 20.5915 7.89239C20.9023 7.78949 21.2484 7.64421 21.6087 7.48078C22.0951 7.26367 22.5667 7.02321 23.0214 6.76052C23.4788 6.50946 23.9091 6.22384 24.307 5.90706C24.5696 5.68528 24.8062 5.442 25.0134 5.18072C25.183 4.96282 25.2818 4.81151 25.2818 4.81151C25.2375 4.95278 25.1685 5.08745 25.077 5.21098C24.8785 5.49434 24.6414 5.75646 24.3706 5.9918Z" fill="#657260"/>
<path d="M24.3706 7.75923L24.1728 7.93475C24.0192 8.05837 23.8455 8.16235 23.6572 8.24345C23.471 8.32539 23.266 8.37088 23.0568 8.37661C22.9611 8.38496 22.8645 8.37462 22.7742 8.34635C22.7813 8.31609 22.8872 8.31608 23.0497 8.31608C23.2418 8.28606 23.4261 8.22661 23.5936 8.14056C23.7608 8.05436 23.913 7.94839 24.0457 7.8258C24.108 7.76987 24.1669 7.71128 24.2223 7.65026C24.2849 7.59463 24.3439 7.53604 24.3989 7.47474C24.5048 7.36585 24.6318 7.21464 24.7589 7.0634L24.7591 7.06316C25.0063 6.75446 25.2395 6.4276 25.2395 6.4276C25.1552 6.67306 25.0316 6.90732 24.8721 7.12367C24.7591 7.2871 24.639 7.44448 24.5401 7.56553C24.4412 7.68659 24.3706 7.75923 24.3706 7.75923Z" fill="#657260"/>
<path d="M6.83841 6.15523C6.84779 6.20535 6.84779 6.25643 6.83841 6.30655C6.84548 6.4034 6.87374 6.54261 6.84549 6.71814C6.86971 7.12184 6.85791 7.52654 6.81017 7.92871C6.75264 8.33651 6.66533 8.74082 6.5488 9.13927C6.50642 9.30875 6.42166 9.44191 6.42166 9.5327L6.36516 9.68402L6.30159 9.82928C6.2592 9.92007 6.20976 10.0532 6.12499 10.2106C5.93687 10.5907 5.71732 10.9589 5.46805 11.3122C5.21887 11.6654 4.93781 12.0014 4.62746 12.317C4.52752 12.4224 4.42144 12.5234 4.30961 12.6196C4.2319 12.6862 4.18246 12.7286 4.17539 12.7225C4.16833 12.7165 4.33786 12.541 4.57096 12.2746C4.87783 11.9616 5.16097 11.6321 5.41862 11.288C5.64963 10.9308 5.85257 10.5607 6.02609 10.1804C6.10379 10.029 6.14618 9.89588 6.18856 9.80508L6.25213 9.6598L6.30159 9.51454C6.3369 9.42375 6.3934 9.29664 6.44285 9.13321C6.56978 8.73511 6.66886 8.33087 6.73953 7.92265C6.79931 7.52106 6.83232 7.11689 6.83841 6.71208V6.30655V6.15523Z" fill="#657260"/>
<path d="M1.43466 9.93219C1.50898 10.2121 1.61301 10.4856 1.74546 10.7493C1.86291 11.0177 2.00706 11.2769 2.17634 11.5241C2.45183 11.8873 2.79091 12.2202 2.79091 12.2202C2.51803 12.0413 2.27967 11.8269 2.08453 11.5846C1.88126 11.3437 1.70617 11.0862 1.5618 10.8159C1.4404 10.5354 1.35051 10.2455 1.29338 9.95035C1.23391 9.65595 1.23391 9.35498 1.29338 9.06058C1.32163 9.06663 1.32164 9.50244 1.43466 9.93219Z" fill="#657260"/>
<path d="M4.42263 13.2128C4.42263 13.2128 4.42038 13.2109 4.41618 13.2072C4.25326 13.1613 4.10694 13.0798 3.99173 12.9707C3.87135 12.8675 3.76689 12.7516 3.68092 12.6257C3.6053 12.4948 3.54839 12.3566 3.5114 12.2141C3.47251 12.0707 3.47251 11.9216 3.5114 11.7783C3.53965 11.7783 3.56792 11.9901 3.65268 12.1838C3.70671 12.3124 3.7753 12.436 3.85752 12.5531C3.92645 12.6748 4.00927 12.7903 4.10475 12.8981C4.23008 13.043 4.38321 13.1785 4.41618 13.2072C4.42301 13.2091 4.42986 13.211 4.43675 13.2128H4.42263Z" fill="#657260"/>
<path d="M4.80405 13.6123C4.927 13.4226 5.01741 13.2188 5.07248 13.007H5.08662C5.12776 12.797 5.14902 12.5844 5.15019 12.3715C5.24435 12.5836 5.27116 12.8134 5.22788 13.0373C5.18841 13.2639 5.10986 13.4842 4.99479 13.691C4.85894 13.8885 4.68726 14.0663 4.4862 14.2176C4.28882 14.3759 4.04448 14.4848 3.77982 14.5323C3.98804 14.411 4.18629 14.2775 4.37318 14.1328C4.54624 13.9787 4.69146 13.8032 4.80405 13.6123Z" fill="#657260"/>
<path d="M24.6602 9.44795L24.526 9.61743H24.5401C24.4847 9.68019 24.4233 9.73891 24.3565 9.79297C24.2193 9.8955 24.0613 9.97553 23.8903 10.029C23.7183 10.0817 23.533 10.0942 23.3534 10.0654C23.2698 10.0573 23.191 10.0278 23.1274 9.9806C23.1345 9.94429 23.2263 9.9806 23.3605 9.9806C23.5262 9.98539 23.6908 9.95635 23.8408 9.89587C23.9882 9.83829 24.1223 9.7583 24.2364 9.6598C24.2898 9.61444 24.3393 9.5659 24.3847 9.51454C24.4327 9.46629 24.4776 9.41577 24.519 9.36322C24.6159 9.24333 24.7032 9.11795 24.7803 8.98795L24.781 8.98681C24.8655 8.84798 24.95 8.70922 25.0134 8.60056C25.077 8.49161 25.077 8.41292 25.077 8.41292C25.107 8.47912 25.107 8.55252 25.077 8.61872C25.0256 8.76294 24.9643 8.90443 24.8933 9.04242C24.8284 9.18274 24.7505 9.31835 24.6602 9.44795Z" fill="#657260"/>
</g>
<g style="mix-blend-mode:multiply" opacity="0.5">
<path d="M9.69104 2.30885L9.64877 2.33917L9.69104 2.30885ZM8.12006 6.49329C8.9302 6.0991 10.0433 6.92993 10.0433 6.92993C10.0433 6.92993 7.96508 5.35925 9.1345 4.50417C9.85628 3.9688 10.678 3.54234 11.5649 3.24278C11.5649 3.24278 7.86646 4.24339 8.32437 3.63089C8.70916 3.16511 9.15341 2.73793 9.64877 2.35736C9.28245 2.64239 6.73226 4.58907 7.10563 3.37012L7.16903 3.17606C6.77221 3.54263 6.40725 3.93382 6.07711 4.34648C4.13981 4.30403 2.55476 4.82557 1.58963 5.97781C2.06163 5.71098 2.75906 5.37139 2.95631 5.46235C3.25923 5.63822 2.25184 7.16645 2.25184 7.16645C2.25184 7.16645 3.41421 6.07485 3.66078 6.29317C3.90734 6.51149 3.05492 8.64616 3.05492 8.64616C3.05492 8.64616 4.37227 6.7298 4.83018 6.94812C5.28808 7.16644 4.92882 8.42783 4.92882 8.42783C4.92882 8.42783 5.73896 6.90567 6.49979 7.25134C6.69698 7.37619 6.83269 7.5601 6.88019 7.76682C6.96473 7.16038 6.99996 6.70555 6.99996 6.70555C7.87099 7.28419 8.81651 7.77459 9.81784 8.16707C8.84567 7.56669 7.61284 6.74193 8.1412 6.49329H8.12006ZM25.6402 4.23126C24.9999 4.55828 24.31 4.80727 23.5902 4.97112C24.5272 4.395 24.4285 2.67877 24.4285 2.67877C24.4285 2.67877 23.872 3.20032 22.0052 3.44896C21.1809 3.55812 20.4553 2.95168 19.4973 2.23608C19.934 2.73943 20.3074 3.30949 20.0397 3.546C19.6382 3.8856 18.3137 3.82495 17.7149 3.74611C18.6769 4.06549 19.5863 4.49157 20.4201 5.01357C20.6103 5.31073 17.7572 5.62001 17.7572 5.62001C17.7572 5.62001 21.1739 5.9111 21.5543 6.60244C21.9347 7.29379 17.8347 9.08885 17.8347 9.08885L19.2859 8.94938C20.4458 8.7644 21.5778 8.46737 22.6603 8.06397C23.3155 8.80989 24.0199 10.8293 24.3792 11.9452C24.4919 12.1756 24.5835 12.3818 24.654 12.5516C24.7103 12.3454 24.8231 11.9452 25.0555 11.3387C25.0046 11.3372 24.9546 11.3268 24.9086 11.308C24.8625 11.2892 24.8214 11.2625 24.7878 11.2296C24.3651 10.7384 24.2172 8.37932 24.6751 7.9912C24.6751 7.95481 24.7667 7.91236 24.8301 7.85778C24.7596 7.7183 24.7103 7.6334 24.7103 7.6334C25.4014 6.60249 25.7248 5.41929 25.6402 4.23126V4.23126ZM5.13312 12.1574C5.13312 12.1574 5.68963 14.4498 4.85131 15.0198C4.01299 15.5899 4.2032 13.3582 2.7379 12.8003C2.08352 12.4 1.5471 11.8734 1.17155 11.2626C0.795998 10.6518 0.591762 9.97383 0.575195 9.28292C0.716089 9.88936 0.969699 10.7263 1.27967 10.7687C1.77279 10.8293 1.27967 9.32537 1.27967 9.32537C1.27967 9.32537 2.83654 11.3205 3.67486 11.3205C4.37933 11.3205 5.97847 9.90149 6.52795 9.39814C6.27435 10.4958 5.83054 11.5934 5.13312 12.1574V12.1574Z" fill="#657260"/>
</g>
<g style="mix-blend-mode:screen" opacity="0.35">
<g style="mix-blend-mode:screen" opacity="0.35">
<path d="M1.85683 6.13487C1.29387 6.73976 0.604244 7.66524 0.857579 8.48185C0.865991 8.50972 0.883837 8.53481 0.908884 8.55393C0.93393 8.57305 0.965029 8.58534 0.998221 8.58923C1.03141 8.59312 1.0652 8.58843 1.09529 8.57577C1.12538 8.56311 1.15042 8.54306 1.16721 8.51814C1.34932 8.19886 1.49996 7.86702 1.61757 7.52611C1.79754 7.13335 2.03394 6.76149 2.32128 6.41917C2.49017 6.20745 2.08907 5.9292 1.89203 6.13487H1.85683Z" fill="#657260"/>
</g>
<g style="mix-blend-mode:screen" opacity="0.35">
<path d="M2.35665 7.27739C2.1464 7.39517 1.96751 7.54983 1.83168 7.73122C1.69585 7.91261 1.60616 8.11664 1.5685 8.32991C1.49109 8.71704 1.52629 9.38847 2.08926 9.49735C3.1026 9.70301 3.03926 7.96698 2.91963 7.47701C2.90375 7.42847 2.87524 7.38367 2.83626 7.34599C2.79728 7.3083 2.74886 7.27873 2.69463 7.2595C2.6404 7.24027 2.58178 7.23191 2.52324 7.235C2.46469 7.2381 2.40772 7.25259 2.35665 7.27739V7.27739Z" fill="#657260"/>
</g>
<g style="mix-blend-mode:screen" opacity="0.35">
<path d="M4.25661 7.59922C3.90476 7.73834 3.67956 8.25856 3.58808 8.5731C3.4783 9.00437 3.51496 9.45367 3.69365 9.86756C3.70074 9.89429 3.71816 9.91816 3.74309 9.93525C3.76802 9.95235 3.79897 9.96167 3.83086 9.96167C3.86275 9.96167 3.8937 9.95235 3.91863 9.93525C3.94356 9.91816 3.961 9.89429 3.96809 9.86756C4.07365 9.47438 4.20734 9.08727 4.27068 8.69409C4.38785 8.35294 4.42611 7.99535 4.38327 7.64156C4.37873 7.63127 4.37172 7.62192 4.3627 7.6141C4.35368 7.60628 4.34284 7.60016 4.3309 7.59617C4.31895 7.59218 4.30618 7.59038 4.29338 7.59091C4.28058 7.59144 4.26806 7.59426 4.25661 7.59922V7.59922Z" fill="#657260"/>
</g>
<g style="mix-blend-mode:screen" opacity="0.35">
<path d="M5.74845 7.93746C5.75415 8.00189 5.75415 8.06658 5.74845 8.13101V8.46975C5.74123 8.66283 5.76251 8.85592 5.81178 9.0444C5.82033 9.06921 5.83712 9.09133 5.86008 9.10807C5.88303 9.12481 5.91115 9.13543 5.94102 9.13864C5.97088 9.14185 6.00119 9.13751 6.02823 9.12614C6.05527 9.11477 6.07789 9.09687 6.09328 9.07464C6.29109 8.70773 6.43754 8.32193 6.52957 7.92535L6.36067 8.11892L6.41698 8.08263C6.49244 8.04231 6.55286 7.98424 6.59108 7.91529C6.6293 7.84634 6.6437 7.76941 6.63259 7.69364C6.62148 7.61787 6.58532 7.54642 6.52839 7.48778C6.47147 7.42914 6.39616 7.38577 6.31143 7.3628C5.95957 7.28417 5.55141 7.65316 5.79771 7.93746H5.74845Z" fill="#657260"/>
</g>
<g style="mix-blend-mode:screen" opacity="0.35">
<path d="M9.42186 3.68998C10.203 3.68998 10.8926 3.31495 11.6174 3.08509C12.4382 2.87334 13.2949 2.78333 14.1508 2.81893C14.234 2.82227 14.3164 2.80324 14.3865 2.76446C14.4566 2.72568 14.5109 2.66911 14.5419 2.60259C14.5728 2.53606 14.5789 2.4629 14.5593 2.39327C14.5396 2.32364 14.4952 2.26099 14.4323 2.21404C13.1234 0.967967 9.83706 1.53052 8.96446 2.97016C8.91899 3.03906 8.8953 3.11702 8.89576 3.19623C8.89622 3.27545 8.9208 3.35317 8.96706 3.42168C9.01332 3.4902 9.07964 3.54711 9.15943 3.58675C9.23923 3.62639 9.3297 3.64738 9.42186 3.64763V3.68998Z" fill="#657260"/>
</g>
<g style="mix-blend-mode:screen" opacity="0.35">
<path d="M15.7478 1.33153C15.9961 1.43871 16.2318 1.56634 16.4515 1.71262C16.6484 1.85986 16.8688 1.98208 17.106 2.07556C17.2889 2.13 17.3945 1.94853 17.3311 1.82755C17.0989 1.35573 16.3319 1.22266 15.8041 1.22266C15.7933 1.22609 15.784 1.23229 15.7775 1.2404C15.7709 1.24851 15.7674 1.25813 15.7674 1.26801C15.7674 1.27789 15.7709 1.28754 15.7775 1.29565C15.784 1.30376 15.7933 1.30995 15.8041 1.31339L15.7478 1.33153Z" fill="#657260"/>
</g>
<g style="mix-blend-mode:screen" opacity="0.35">
<path d="M9.15455 7.21676C10.562 8.42655 13.1446 9.03143 15.115 9.07982C15.2557 9.07982 15.2979 8.88626 15.1502 8.86207C14.1765 8.73357 13.2181 8.53114 12.2861 8.25718C11.2446 7.92449 10.3227 7.41033 9.30937 7.04739C9.1827 6.999 9.04196 7.11998 9.15455 7.21676V7.21676Z" fill="#657260"/>
</g>
<g style="mix-blend-mode:screen" opacity="0.35">
<path d="M9.37242 5.78308C11.1247 7.54331 16.1703 8.06352 18.4503 6.95657C18.4972 6.93125 18.5347 6.89484 18.5582 6.8517C18.5817 6.80855 18.5903 6.76049 18.5829 6.71327C18.5754 6.66605 18.5523 6.62169 18.5163 6.58545C18.4804 6.54922 18.433 6.52265 18.3799 6.50895C16.8528 6.2791 15.3117 6.4787 13.7706 6.23675C12.3632 6.01899 11.0402 5.36571 9.63281 5.23868C9.28799 5.20239 9.18945 5.59556 9.37242 5.78308V5.78308Z" fill="#657260"/>
</g>
<g style="mix-blend-mode:screen" opacity="0.35">
<path d="M19.8719 6.8977C19.9858 6.86681 20.1043 6.85045 20.2237 6.84915C20.3455 6.86902 20.4715 6.8541 20.5826 6.80667C20.6078 6.79296 20.6292 6.77468 20.6453 6.75309C20.6614 6.73149 20.6718 6.70711 20.6759 6.68167C20.6799 6.65623 20.6774 6.63035 20.6686 6.60583C20.6598 6.5813 20.6448 6.55872 20.6248 6.5397C20.3997 6.34555 19.9704 6.49724 19.7311 6.60645C19.6863 6.62255 19.6508 6.65331 19.6323 6.692C19.6138 6.73069 19.6139 6.77412 19.6326 6.81274C19.6513 6.85137 19.687 6.88201 19.7318 6.89794C19.7767 6.91387 19.8271 6.91379 19.8719 6.8977V6.8977Z" fill="#657260"/>
</g>
<g style="mix-blend-mode:screen" opacity="0.35">
<path d="M12.8627 4.39822C13.205 4.47422 13.5576 4.51083 13.9112 4.50709C14.5106 4.58577 15.1015 4.70717 15.6775 4.87003C16.5295 5.17359 17.4652 5.2597 18.3727 5.11804C18.4332 5.10316 18.489 5.07665 18.5358 5.04051C18.5827 5.00437 18.6193 4.95956 18.6431 4.90944C18.6668 4.85933 18.677 4.80523 18.6728 4.75124C18.6686 4.69726 18.6502 4.6448 18.619 4.59782C17.9153 3.66024 16.5501 3.49087 15.3468 3.38804C14.4742 3.30336 12.919 3.10375 12.6445 4.07763C12.6246 4.14654 12.6362 4.21937 12.6767 4.28122C12.7173 4.34307 12.7838 4.38925 12.8627 4.41031V4.39822Z" fill="#657260"/>
</g>
<g style="mix-blend-mode:screen" opacity="0.35">
<path d="M19.2666 5.01598C19.3686 5.06622 19.4809 5.09917 19.5973 5.11306C19.7021 5.10574 19.8058 5.08949 19.9069 5.06453C19.9315 5.05949 19.9537 5.04823 19.9708 5.03222C19.9879 5.0162 19.9991 4.99614 20.0028 4.97463C20.0066 4.95312 20.0029 4.93113 19.992 4.91147C19.9812 4.89181 19.9638 4.87538 19.9421 4.86429C19.8626 4.8114 19.7779 4.76469 19.6888 4.72473C19.5866 4.69647 19.479 4.68616 19.3721 4.6944C19.1892 4.6944 19.0836 4.94317 19.2666 5.01598V5.01598Z" fill="#657260"/>
</g>
</g>
<path d="M6.12966 4.9783C6.12966 4.9783 5.8292 5.26842 5.8149 5.28618L4.56291 6.52956L3.8475 7.24008L3.53985 7.55979C3.47546 7.619 3.26085 7.77887 3.28231 7.84992L3.32523 8.02163C3.23037 8.0103 3.14191 7.97534 3.07162 7.92141C3.00134 7.86747 2.95256 7.7971 2.93176 7.71966C2.93176 7.58941 3.03191 7.50651 3.11776 7.40586C3.31092 7.20455 3.49694 6.99732 3.6901 6.81377L5.62172 4.69409L6.12966 4.9783Z" fill="#475242"/>
<g style="mix-blend-mode:multiply">
<path d="M6.04851 4.95693L5.8572 4.83838C5.12141 5.63261 4.38561 6.42685 3.64982 7.20923C3.51738 7.34556 2.91404 7.80194 3.15685 8.02125H3.25985C3.2447 7.98673 3.2447 7.94908 3.25985 7.91456V7.85529C3.25985 7.78416 3.45853 7.62413 3.52475 7.56486L3.64248 7.44038L3.73077 7.35741V7.32185L3.8117 7.24479L4.15752 6.90103L4.40769 6.65801L4.4592 6.60467L4.53278 6.53353L5.37157 5.72152L5.73947 5.35997L5.80571 5.30069C5.80571 5.30069 6.12208 4.98656 6.12944 4.99249L6.05588 4.951L6.04851 4.95693Z" fill="#475242"/>
</g>
<path d="M13.8001 4.839L13.5354 4.32435C14.4308 3.93858 15.4476 3.86589 16.3967 4.1198L16.1749 4.64767C15.3833 4.45411 14.5433 4.52178 13.8001 4.839V4.839Z" fill="#475242"/>
<g style="mix-blend-mode:multiply">
<path d="M13.8155 4.83975C14.5401 4.49323 15.3586 4.41897 16.1303 4.62971L16.2283 4.37619C15.3856 4.16357 14.4989 4.24243 13.7036 4.60073L13.8155 4.83975Z" fill="#475242"/>
</g>
<path d="M9.76533 10.0469C5.52128 10.0469 5.28784 4.90677 5.28784 4.85177V4.70509L5.42224 4.61951C5.46468 4.61951 9.74411 2.04637 13.7406 4.35058L13.8538 4.42392V4.55229C13.8538 4.66841 14.1155 7.32711 12.6371 8.91621C12.3116 9.26714 11.8993 9.5508 11.4306 9.74642C10.9619 9.94205 10.4486 10.0447 9.92803 10.0469H9.76533ZM5.86081 4.9679C5.92447 5.80523 6.42668 9.6191 9.92095 9.50298C10.3621 9.5019 10.7974 9.41573 11.1951 9.25078C11.5928 9.08583 11.9429 8.84624 12.2198 8.54949C13.3728 7.3271 13.3445 5.24904 13.3162 4.7173C10.0483 2.93261 6.5823 4.59507 5.86081 4.9679Z" fill="#475242"/>
<g style="mix-blend-mode:multiply">
<path d="M12.3915 8.72433C13.7562 7.27288 13.5228 4.84774 13.5158 4.74493V4.62397L13.4026 4.56349C9.72569 2.45887 5.78713 4.78122 5.74471 4.80541L5.62451 4.88402V5.01707C5.62451 5.06545 5.8437 9.75851 9.7469 9.75851H9.90246C10.3811 9.75494 10.8527 9.66027 11.2833 9.48139C11.7138 9.30251 12.0923 9.04391 12.3915 8.72433ZM5.85079 4.98684C6.55789 4.59978 10.0368 2.95479 13.3036 4.73888C13.3036 5.26503 13.3602 7.30916 12.2076 8.5308C11.9308 8.82443 11.5809 9.0615 11.1833 9.22472C10.7857 9.38794 10.3505 9.47321 9.90954 9.47427C6.41646 9.60732 5.92857 5.83352 5.85079 4.98684Z" fill="#475242"/>
</g>
<path d="M20.897 9.16614C16.7506 9.47013 16.0596 4.38744 16.0596 4.3388V4.1868L16.184 4.1017C16.2185 4.0713 20.1437 1.23811 24.2555 3.23836L24.373 3.29916V3.42683C24.373 3.53627 24.8913 6.15666 23.5921 7.84076C23.3089 8.21205 22.9347 8.52275 22.497 8.75001C22.0592 8.97728 21.5692 9.11533 21.0628 9.15399L20.897 9.16614ZM16.6124 4.42392C16.7575 5.24469 17.6006 8.9959 20.9937 8.62503C21.4235 8.59458 21.8399 8.47928 22.212 8.2877C22.584 8.09613 22.9023 7.83323 23.1429 7.51853C24.1519 6.21138 23.9238 4.16857 23.834 3.63963C20.4962 2.08928 17.3035 3.98618 16.6124 4.42392Z" fill="#475242"/>
<g style="mix-blend-mode:multiply">
<path d="M23.4602 7.65963C24.7002 6.12834 24.2271 3.73494 24.1769 3.63245V3.51189L24.0551 3.45762C20.1344 1.649 16.3785 4.21725 16.3427 4.24739L16.228 4.32575V4.46442C16.228 4.50662 16.9448 9.15476 20.8655 8.87744H21.0231C21.5123 8.84221 21.9856 8.71435 22.4076 8.50346C22.8296 8.29256 23.1895 8.00408 23.4602 7.65963ZM16.4861 4.43428C17.2028 4.00022 20.5143 2.11925 23.9906 3.65657C24.0694 4.18107 24.3059 6.20672 23.2738 7.50289C23.0242 7.81495 22.6941 8.07564 22.3082 8.26561C21.9223 8.45557 21.4904 8.5699 21.0446 8.6001C17.511 8.96786 16.6366 5.24816 16.4861 4.43428Z" fill="#475242"/>
</g>
<path d="M9.49654 16.5578C9.82747 16.1874 10.3061 15.9343 10.841 15.8467C11.2289 15.758 11.634 15.7395 12.0307 15.7925L12.2559 15.8226L12.2137 15.7563C12.1797 15.7023 12.1421 15.65 12.1011 15.5996C11.8822 15.3276 11.5733 15.1177 11.2141 14.997C10.8424 14.873 10.4373 14.8417 10.0456 14.9066C9.71476 14.9609 9.51062 15.0573 9.49654 15.0332C9.48246 15.0091 9.65142 14.8705 9.99634 14.768C10.4261 14.6467 10.89 14.6467 11.3197 14.768C11.6671 14.8729 11.983 15.0424 12.2447 15.2644C12.5064 15.4863 12.7074 15.7552 12.8331 16.0516C12.8331 16.0516 12.8331 16.0938 13.0302 16.5277L12.5586 16.3529C12.446 16.3167 12.3122 16.2625 12.1855 16.2264L11.9603 16.1782C11.6091 16.1096 11.2459 16.0994 10.8903 16.148C10.4023 16.2172 9.93123 16.3557 9.49654 16.5578V16.5578Z" fill="#475242"/>
<g style="mix-blend-mode:multiply">
<path d="M13.1986 18.0939C13.1986 18.0939 16.5535 20.1966 19.4261 17.8589C19.4261 17.8589 18.6293 20.7223 16.4976 20.8893C14.1701 21.0686 13.1986 18.0939 13.1986 18.0939Z" fill="#475242"/>
</g>
<path d="M13.2688 18.2418H13.332L13.4163 18.282L13.5005 18.3222L13.6199 18.3797L13.7182 18.4199L13.8727 18.4831L13.985 18.5291L14.1817 18.598L14.301 18.6382L14.5257 18.7072L14.6662 18.7417L14.9189 18.8048L15.0524 18.8393L15.3402 18.891H15.4807L15.7897 18.9312H15.916C16.0284 18.9312 16.1478 18.9312 16.2671 18.9312H16.3374C16.7825 18.9325 17.2253 18.8783 17.6504 18.7704H17.7487C17.8657 18.739 17.9806 18.7026 18.0928 18.6612L18.2754 18.5923C18.3836 18.5488 18.4891 18.5009 18.5913 18.4486C18.6474 18.4272 18.7014 18.4022 18.7528 18.374C18.6686 18.4199 18.5773 18.6785 18.5211 18.7589C18.4234 18.9003 18.3081 19.0332 18.1771 19.1553C17.9453 19.3679 17.524 19.4426 17.3204 19.6609C17.208 19.7873 17.2502 19.8447 17.3204 19.9884C17.4048 20.134 17.4986 20.2759 17.6013 20.4135C17.2792 20.5989 16.9045 20.7136 16.5129 20.7467C14.4064 20.8961 13.4303 18.7302 13.2337 18.2476C13.2304 18.2134 13.2185 18.1801 13.1986 18.1499H13.2337L13.2688 18.2418Z" fill="white"/>
<g style="mix-blend-mode:multiply" opacity="0.5">
<path d="M13.2688 18.2418H13.332L13.4163 18.282L13.5005 18.3222L13.6199 18.3797L13.7182 18.4199L13.8727 18.4831L13.985 18.5291L14.1817 18.598L14.301 18.6382L14.5257 18.7072L14.6662 18.7417L14.9189 18.8048L15.0524 18.8393L15.3402 18.891H15.4807L15.7897 18.9312H15.916C16.0284 18.9312 16.1478 18.9312 16.2671 18.9312H16.3374C16.7825 18.9325 17.2253 18.8783 17.6504 18.7704H17.7487C17.8657 18.739 17.9806 18.7026 18.0928 18.6612L18.2754 18.5923C18.3836 18.5488 18.4891 18.5009 18.5913 18.4486C18.6474 18.4272 18.7014 18.4022 18.7528 18.374C18.6686 18.4199 18.5773 18.6785 18.5211 18.7589C18.4234 18.9003 18.3081 19.0332 18.1771 19.1553C18.0823 19.2361 17.9705 19.3023 17.847 19.3506C17.847 19.3506 18.3456 18.9083 18.0015 18.9772C16.9677 19.224 15.8761 19.2615 14.8206 19.0864C14.8206 19.0864 15.1717 19.839 17.3204 19.6609C17.3204 19.6609 16.9131 20.3043 14.7574 19.6321C15.0229 20.0167 15.4586 20.3032 15.9747 20.4326C16.4908 20.5619 17.0479 20.5243 17.531 20.3273C17.5662 20.379 17.5942 20.4192 17.6013 20.4135C17.2792 20.5989 16.9045 20.7136 16.5129 20.7467C14.4064 20.8961 13.4303 18.7302 13.2337 18.2476C13.2304 18.2134 13.2185 18.1801 13.1986 18.1499H13.2337L13.2688 18.2418Z" fill="#D3DBFD"/>
</g>
<path d="M13.4977 17.7146C13.5403 17.7146 13.5545 17.9116 13.4977 18.097C13.4443 18.2128 13.3676 18.3205 13.2706 18.4156C13.162 18.4865 13.0362 18.5379 12.9016 18.5663C12.71 18.6068 12.5184 18.5663 12.5255 18.5083C12.5326 18.4504 12.6958 18.4272 12.8235 18.3461C12.9136 18.2933 12.9948 18.2309 13.0648 18.1607C13.153 18.1058 13.2318 18.0415 13.299 17.9695C13.3841 17.8594 13.4551 17.7146 13.4977 17.7146Z" fill="#767F72"/>
<path d="M19.5944 17.7162C19.5089 17.8878 19.3864 18.0414 19.2344 18.1675C18.9295 18.4397 18.5761 18.661 18.1898 18.8215C17.8187 18.9782 17.4233 19.0797 17.0181 19.1223C16.6579 19.1744 16.2912 19.1744 15.9311 19.1223C15.5355 19.0796 15.1438 19.0096 14.7594 18.9131C14.3612 18.8208 13.9804 18.673 13.63 18.4749C13.3407 18.3048 13.1854 18.1282 13.1995 18.1086C13.2136 18.089 13.3901 18.2198 13.6865 18.3441C14.0417 18.4924 14.4168 18.5957 14.8017 18.6515C15.1818 18.7182 15.5661 18.7619 15.9523 18.7823C16.2699 18.7823 16.4746 18.7823 16.4746 18.7823C16.4746 18.7823 16.6793 18.7823 16.9969 18.7823C17.3802 18.7647 17.7584 18.6941 18.1192 18.573C18.4922 18.4464 18.8421 18.2678 19.1568 18.0432C19.4179 17.8601 19.5803 17.6966 19.5944 17.7162Z" fill="#767F72"/>
<path d="M17.724 21.4774C17.7712 21.4774 17.724 21.7201 17.6431 21.9264C17.5756 22.0586 17.4871 22.1813 17.3802 22.2905C17.2593 22.3685 17.1249 22.4279 16.9825 22.4664C16.7735 22.521 16.5646 22.4664 16.5646 22.43C16.5646 22.3936 16.7533 22.339 16.9083 22.2419C17.0107 22.1757 17.1056 22.1005 17.1915 22.0174C17.2918 21.9488 17.3824 21.8693 17.4611 21.7808C17.5891 21.6473 17.6835 21.4652 17.724 21.4774Z" fill="#767F72"/>
</svg>
